RBDS026runT25_grf
version=1
nRows=24
nColumns=19
inDegrees=no
endheader
time	ground_force_r_vx	ground_force_r_vy	ground_force_r_vz	ground_force_r_px	ground_force_r_py	ground_force_r_pz	ground_force_r_mx	ground_force_r_my	ground_force_r_mz	ground_force_l_vx	ground_force_l_vy	ground_force_l_vz	ground_force_l_px	ground_force_l_py	ground_force_l_pz	ground_force_l_mx	ground_force_l_my	ground_force_l_mz
      0.00000000	      0.00000000	      0.00000000	      0.00000000	      0.00000000	      0.00000000	      0.00000000	      0.00000000	      0.00000000	      0.00000000	      0.00000000	      0.00000000	      0.00000000	      0.00000000	      0.00000000	      0.00000000	      0.00000000	      0.00000000	      0.00000000
      0.00100000	      0.00000000	      0.00000000	      0.00000000	      0.00000000	      0.00000000	      0.00000000	      0.00000000	      0.00000000	      0.00000000	      0.00000000	      0.00000000	      0.00000000	      0.00000000	      0.00000000	      0.00000000	      0.00000000	      0.00000000	      0.00000000
      0.00200000	      0.00000000	      0.00000000	      0.00000000	      0.00000000	      0.00000000	      0.00000000	      0.00000000	      0.00000000	      0.00000000	      0.00000000	      0.00000000	      0.00000000	      0.00000000	      0.00000000	      0.00000000	      0.00000000	      0.00000000	      0.00000000
      0.00300000	      0.00000000	      0.00000000	      0.00000000	      0.00000000	      0.00000000	      0.00000000	      0.00000000	      0.00000000	      0.00000000	      0.00000000	      0.00000000	      0.00000000	      0.00000000	      0.00000000	      0.00000000	      0.00000000	      0.00000000	      0.00000000
      0.00400000	    -12.89074144	     14.14281439	      1.66511034	      0.46697484	      0.00000000	      0.20668186	      0.00000000	      0.94576098	     -0.00000000	      0.00000000	      0.00000000	      0.00000000	      0.00000000	      0.00000000	      0.00000000	      0.00000000	      0.00000000	      0.00000000
      0.00500000	    -32.22685360	     35.35703598	      4.16277585	      1.16743711	      0.00000000	      0.51670464	      0.00000000	      2.36440246	     -0.00000000	      0.00000000	      0.00000000	      0.00000000	      0.00000000	      0.00000000	      0.00000000	      0.00000000	      0.00000000	      0.00000000
      0.00600000	    -51.56296576	     56.57125757	      6.66044135	      1.86789937	      0.00000000	      0.82672742	      0.00000000	      3.78304394	     -0.00000000	      0.00000000	      0.00000000	      0.00000000	      0.00000000	      0.00000000	      0.00000000	      0.00000000	      0.00000000	      0.00000000
      0.00700000	    -64.28558897	     82.18127759	      8.09394451	      2.33452982	      0.00000000	      1.03339018	      0.00000000	      4.80811800	     -0.00000000	      0.00000000	      0.00000000	      0.00000000	      0.00000000	      0.00000000	      0.00000000	      0.00000000	      0.00000000	      0.00000000
      0.00800000	    -63.78123429	    116.58289447	      7.39912294	      2.33349662	      0.00000000	      1.03333289	      0.00000000	      5.04605723	     -0.00000000	      0.00000000	      0.00000000	      0.00000000	      0.00000000	      0.00000000	      0.00000000	      0.00000000	      0.00000000	      0.00000000
      0.00900000	    -63.27687961	    150.98451135	      6.70430138	      2.33246343	      0.00000000	      1.03327559	      0.00000000	      5.28399647	     -0.00000000	      0.00000000	      0.00000000	      0.00000000	      0.00000000	      0.00000000	      0.00000000	      0.00000000	      0.00000000	      0.00000000
      0.01000000	    -62.77252493	    185.38612823	      6.00947982	      2.33143024	      0.00000000	      1.03321830	      0.00000000	      5.52193570	     -0.00000000	      0.00000000	      0.00000000	      0.00000000	      0.00000000	      0.00000000	      0.00000000	      0.00000000	      0.00000000	      0.00000000
      0.01100000	    -62.41507854	    219.46623954	      5.31314263	      2.33041303	      0.00000000	      1.03316127	      0.00000000	      5.73944850	      0.00000000	      0.00000000	      0.00000000	      0.00000000	      0.00000000	      0.00000000	      0.00000000	      0.00000000	      0.00000000	      0.00000000
      0.01200000	    -62.05763215	    253.54635085	      4.61680544	      2.32939583	      0.00000000	      1.03310424	      0.00000000	      5.95696130	      0.00000000	      0.00000000	      0.00000000	      0.00000000	      0.00000000	      0.00000000	      0.00000000	      0.00000000	      0.00000000	      0.00000000
      0.01300000	    -61.70018576	    287.62646216	      3.92046825	      2.32837863	      0.00000000	      1.03304721	      0.00000000	      6.17447410	      0.00000000	      0.00000000	      0.00000000	      0.00000000	      0.00000000	      0.00000000	      0.00000000	      0.00000000	      0.00000000	      0.00000000
      0.01400000	    -61.46755758	    321.33219807	      3.24385716	      2.32737555	      0.00000000	      1.03299043	      0.00000000	      6.38049995	      0.00000000	      0.00000000	      0.00000000	      0.00000000	      0.00000000	      0.00000000	      0.00000000	      0.00000000	      0.00000000	      0.00000000
      0.01500000	    -61.29733850	    354.85074628	      2.57710913	      2.32637954	      0.00000000	      1.03293378	      0.00000000	      6.58078232	      0.00000000	      0.00000000	      0.00000000	      0.00000000	      0.00000000	      0.00000000	      0.00000000	      0.00000000	      0.00000000	      0.00000000
      0.01600000	    -61.12711943	    388.36929449	      1.91036109	      2.32538353	      0.00000000	      1.03287714	      0.00000000	      6.78106469	      0.00000000	      0.00000000	      0.00000000	      0.00000000	      0.00000000	      0.00000000	      0.00000000	      0.00000000	      0.00000000	      0.00000000
      0.01700000	    -61.03152094	    421.62382894	      1.26160771	      2.32439592	      0.00000000	      1.03282079	      0.00000000	      6.97643695	      0.00000000	      0.00000000	      0.00000000	      0.00000000	      0.00000000	      0.00000000	      0.00000000	      0.00000000	      0.00000000	      0.00000000
      0.01800000	    -61.08516361	    454.35033587	      0.64884364	      2.32342509	      0.00000000	      1.03276503	      0.00000000	      7.16198899	      0.00000000	      0.00000000	      0.00000000	      0.00000000	      0.00000000	      0.00000000	      0.00000000	      0.00000000	      0.00000000	      0.00000000
      0.01900000	    -61.13880628	    487.07684280	      0.03607958	      2.32245427	      0.00000000	      1.03270928	      0.00000000	      7.34754103	      0.00000000	      0.00000000	      0.00000000	      0.00000000	      0.00000000	      0.00000000	      0.00000000	      0.00000000	      0.00000000	      0.00000000
      0.02000000	    -61.19244895	    519.80334973	     -0.57668449	      2.32148344	      0.00000000	      1.03265352	      0.00000000	      7.53309307	      0.00000000	      0.00000000	      0.00000000	      0.00000000	      0.00000000	      0.00000000	      0.00000000	      0.00000000	      0.00000000	      0.00000000
      0.02100000	    -61.50092827	    551.51945955	     -1.11937074	      2.32054044	      0.00000000	      1.03259959	      0.00000000	      7.70557251	      0.00000000	      0.00000000	      0.00000000	      0.00000000	      0.00000000	      0.00000000	      0.00000000	      0.00000000	      0.00000000	      0.00000000
      0.02200000	    -61.80940759	    583.23556937	     -1.66205699	      2.31959743	      0.00000000	      1.03254567	      0.00000000	      7.87805196	      0.00000000	      0.00000000	      0.00000000	      0.00000000	      0.00000000	      0.00000000	      0.00000000	      0.00000000	      0.00000000	      0.00000000
      0.02300000	    -62.11788691	    614.95167919	     -2.20474324	      2.31865442	      0.00000000	      1.03249174	      0.00000000	      8.05053141	      0.00000000	      0.00000000	      0.00000000	      0.00000000	      0.00000000	      0.00000000	      0.00000000	      0.00000000	      0.00000000	      0.00000000
